<?xml version="1.0" encoding="utf-8"?>
<!-- Generator: Adobe Illustrator 16.0.0, SVG Export Plug-In . SVG Version: 6.00 Build 0)  -->
<!DOCTYPE svg PUBLIC "-//W3C//DTD SVG 1.1//EN" "http://www.w3.org/Graphics/SVG/1.1/DTD/svg11.dtd">
<svg version="1.1" id="Layer_1" xmlns="http://www.w3.org/2000/svg" xmlns:xlink="http://www.w3.org/1999/xlink" x="0px" y="0px"
	 width="550.768px" height="535.617px" viewBox="0 0 550.768 535.617" enable-background="new 0 0 550.768 535.617"
	 xml:space="preserve">
<path fill="#797979" d="M431.61,260.807"/>
<path opacity="0.7" fill="#85E00E" enable-background="new    " d="M431.96,252.538l85.888-24.944c0,0-77.059,37.977-86.328,42.43
	c-10.688,52.196-67.126,48.187-81.032,74.676c-21.908,41.608-71.006,62.305-153.932,53.181
	c-6.236,12.896-76.764,87.212-98.471,98.286c-21.651,11.037,39.808-55.057,39.808-55.057s-29.966,28.641-51.765,38.262
	c-21.798,9.621,52.225-67.014,52.225-67.014s-34.104,20.934-53.678,25.312c-19.646,4.36,32.542-41.702,32.542-41.702
	s-17.679,4.103-24.448,5.169c-6.751,1.067-10.596-3.974,11.957-18.726c22.461-14.791,69.737-48.013,115.56-64.55
	c0.607-16.905-105.147-150.336-102.021-161.713c3.054-11.35,47.239,4.313,120.711,66.26c4.212-11.534-38.281-166.643-22.204-154.41
	c16.132,12.103,93.687,120.783,114.345,210.11c10.431,0.523,26.654-18.433,45.73-31.181
	C410.989,223.952,431.96,252.538,431.96,252.538L431.96,252.538z"/>
<path opacity="0.6" fill="#981C99" enable-background="new    " d="M432.217,259.096l85.631-31.502c0,0-77.39,44.922-86.845,48.959
	c-13.022,51.663-69.203,45.151-84.306,70.979c-23.73,40.58-73.691,59.067-156.14,46.246c-6.807,12.619-80.571,83.698-102.757,93.799
	c-22.129,10.043,42.218-53.219,42.218-53.219s-31.217,27.262-53.42,35.907c-22.203,8.646,55.167-64.604,55.167-64.604
	s-34.987,19.389-54.744,22.884c-19.812,3.459,34.362-40.212,34.362-40.212s-17.843,3.312-24.649,4.083
	c-6.788,0.773-10.412-4.451,12.785-18.174c23.104-13.778,71.814-44.849,118.318-59.344c1.361-16.851-99.151-154.89-95.527-166.12
	c3.551-11.212,47.847,6.429,118.467,71.595c4.728-11.332-11.957-168.179,3.55-155.248c15.581,12.822,69.369,124.858,85.998,215.015
	c10.412,0.992,27.465-17.228,47.092-29.112C412.553,229.608,432.217,259.096,432.217,259.096L432.217,259.096z"/>
<path opacity="0.7" fill="#13BDE5" enable-background="new    " d="M431.04,243.037l86.808-15.443c0,0-77.149,27.887-86.107,32.928
	c-7.305,52.757-63.851,52.445-76.048,79.781c-19.148,42.916-66.793,66.756-150.143,63.041
	c-5.39,13.281-70.933,91.994-91.885,104.448c-20.897,12.398,36.146-57.504,36.146-57.504s-28.053,30.519-49.17,41.537
	c-21.137,11,47.772-70.271,47.772-70.271s-32.67,23.104-51.912,28.733c-19.314,5.63,29.745-43.727,29.745-43.727
	s-17.365,5.263-24.042,6.751c-6.659,1.51-10.835-3.273,10.725-19.462c21.448-16.207,66.48-52.427,111.107-71.889
	c-0.479-16.924-113.426-143.254-111.053-154.815c2.318-11.534,46.209,1.269,123.524,58.332
	c3.459-11.782-48.986-144.974-32.154-133.817c16.887,11.046,101.321,95.637,127.701,183.429
	c10.467-0.146,25.422-20.125,43.633-34.078C408.267,215.876,431.04,243.037,431.04,243.037L431.04,243.037z"/>
</svg>
